<?xml version="1.0" encoding="UTF-8"?>
<svg width="48px" height="45px" viewBox="0 0 48 45" version="1.1" xmlns="http://www.w3.org/2000/svg" xmlns:xlink="http://www.w3.org/1999/xlink">
    <!-- Generator: Sketch 42 (36781) - http://www.bohemiancoding.com/sketch -->
    <title>notifications</title>
    <desc>Created with Sketch.</desc>
    <defs>
        <ellipse id="path-1" cx="17.2012993" cy="17.5" rx="17.2012993" ry="17.5"></ellipse>
        <mask id="mask-2" maskContentUnits="userSpaceOnUse" maskUnits="objectBoundingBox" x="0" y="0" width="34.4025985" height="35" fill="white">
            <use xlink:href="#path-1"></use>
        </mask>
    </defs>
    <g id="Symbols" stroke="none" stroke-width="1" fill="none" fill-rule="evenodd">
        <g id="notifications">
            <g id="Group-11" transform="translate(6.000000, 5.000000)">
                <g id="PICTO-ALERTE">
                    <use id="Oval-23" stroke="#2C303C" mask="url(#mask-2)" stroke-width="4" xlink:href="#path-1"></use>
                    <path d="M14.5337108,10.3525739 C15.8803018,7.94678191 18.0694961,7.95739235 19.4101481,10.3525739 L25.4588603,21.1590798 C26.8054513,23.5648718 25.6613985,25.5151515 22.8978791,25.5151515 L11.0459798,25.5151515 C8.28499796,25.5151515 7.14434656,23.5542614 8.48499857,21.1590798 L14.5337108,10.3525739 Z" id="Triangle" stroke="#2C303C" stroke-width="2"></path>
                    <path d="M15.9090909,13.8517569 C15.9090909,13.2641932 16.3808623,12.7878788 16.9719627,12.7878788 L16.9719627,12.7878788 C17.5589705,12.7878788 18.0348344,13.2640895 18.0348344,13.8517569 L18.0348344,18.3456223 C18.0348344,18.933186 17.563063,19.4095004 16.9719627,19.4095004 L16.9719627,19.4095004 C16.3849548,19.4095004 15.9090909,18.9332897 15.9090909,18.3456223 L15.9090909,13.8517569 Z" id="Rectangle-18" fill="#2C303C"></path>
                    <ellipse id="Oval-3" fill="#2C303C" cx="17.0713409" cy="21.3945536" rx="1.16224995" ry="1.18243243"></ellipse>
                </g>
            </g>
        </g>
    </g>
</svg>